# xmcd
#
# Track frame offsets:
#	150
#	21155
#	51901
#	75118
#	98907
#	123624
#	148976
#	172590
#	197018
#	220984
#	243485
#	267912
#	291615
#	314993
#
# Disc length: 4540 seconds
#
# Revision: 0
# Processed by: cddbd v1.5.2PL0 Copyright (c) Steve Scherf et al.
# Submitted via: dBpowerAMP V4.0
#
DISCID=d611ba0e
DTITLE=Various Artist - Hardcore Empire
DYEAR=2007
DGENRE=Hardcore
TTITLE0=DJ Earmack - As For You Sucker (DJ D Remix)
TTITLE1=Evil Entity - Against Me
TTITLE2=Weapon X - Hate Me!
TTITLE3=Guys of Hell - Rock (DJ Earmack Remix)
TTITLE4=DH Chaoz - Like Thiz
TTITLE5=Omar Santana vs. Quateraion - Mad Skillz
TTITLE6=Evil Activities feat. Neophyte - Back on Track 
TTITLE7=DJ D - Next Soul
TTITLE8=DJ Earmack - Damn Money
TTITLE9=Core Pusher - Fire Burnin'
TTITLE10=D-Drive - Weapons and Ammunition
TTITLE11=DJ Sabotage vs. H.M.V. - Devastation
TTITLE12=Meccano Twins vs. Art of Fighters - Dualism
TTITLE13=DJ Chaoz - Overdose
EXTD=HARDCORE 4 LIFE ! 
EXTT0=
EXTT1=
EXTT2=
EXTT3=
EXTT4=
EXTT5=
EXTT6=
EXTT7=
EXTT8=
EXTT9=
EXTT10=
EXTT11=
EXTT12=
EXTT13=
PLAYORDER=
